<?xml version="1.0" encoding="UTF-8" standalone="no"?>
<svg width="393px" height="800px" viewBox="0 0 393 800" version="1.1" xmlns="http://www.w3.org/2000/svg" xmlns:xlink="http://www.w3.org/1999/xlink" xmlns:sketch="http://www.bohemiancoding.com/sketch/ns">
    <!-- Generator: Sketch 3.2.2 (9983) - http://www.bohemiancoding.com/sketch -->
    <title>Apple iPhone 6</title>
    <desc>Created with Sketch.</desc>
    <defs></defs>
    <g id="Page-1" stroke="none" stroke-width="1" fill="none" fill-rule="evenodd" sketch:type="MSPage">
        <path d="M390.627767,228.796844 L391.498821,228.796844 C392.327899,228.796844 393,228.132319 393,227.304573 L393,171.117517 C393,170.293359 392.320234,169.625247 391.498821,169.625247 L390.627767,169.625247 L390.627767,50.0057566 C390.627767,22.3883398 368.235069,0 340.627833,0 L52.3721666,0 C24.757966,0 2.3722334,22.3894543 2.3722334,50.0057566 L2.3722334,100.986193 L1.50117895,100.986193 C0.672100709,100.986193 0,101.661809 0,102.481489 L0,131.838038 C0,132.663867 0.679766416,133.333333 1.50117895,133.333333 L2.3722334,133.333333 L2.3722334,169.625247 L1.50117895,169.625247 C0.672100709,169.625247 0,170.289771 0,171.117517 L0,227.304573 C0,228.128732 0.679766416,228.796844 1.50117895,228.796844 L2.3722334,228.796844 L2.3722334,242.209073 L1.50117895,242.209073 C0.672100709,242.209073 0,242.873598 0,243.701344 L0,299.8884 C0,300.712558 0.679766416,301.380671 1.50117895,301.380671 L2.3722334,301.380671 L2.3722334,749.994243 C2.3722334,777.61166 24.7649311,800 52.3721666,800 L340.627833,800 C368.242034,800 390.627767,777.610546 390.627767,749.994243 L390.627767,228.796844 L390.627767,228.796844 Z M26.0945674,97.0414201 L26.0945674,701.380671 L366.905433,701.380671 L366.905433,97.0414201 L26.0945674,97.0414201 Z M196.104628,775.542406 C212.69984,775.542406 226.152918,762.119779 226.152918,745.56213 C226.152918,729.004481 212.69984,715.581854 196.104628,715.581854 C179.509416,715.581854 166.056338,729.004481 166.056338,745.56213 C166.056338,762.119779 179.509416,775.542406 196.104628,775.542406 Z M196.104628,772.386588 C210.952976,772.386588 222.98994,760.376869 222.98994,745.56213 C222.98994,730.747391 210.952976,718.737673 196.104628,718.737673 C181.25628,718.737673 169.219316,730.747391 169.219316,745.56213 C169.219316,760.376869 181.25628,772.386588 196.104628,772.386588 Z M134.426559,56.8047337 C137.920288,56.8047337 140.752515,53.9789176 140.752515,50.4930966 C140.752515,47.0072757 137.920288,44.1814596 134.426559,44.1814596 C130.93283,44.1814596 128.100604,47.0072757 128.100604,50.4930966 C128.100604,53.9789176 130.93283,56.8047337 134.426559,56.8047337 Z M196.895372,29.1913215 C199.078953,29.1913215 200.849095,27.4251864 200.849095,25.2465483 C200.849095,23.0679103 199.078953,21.3017751 196.895372,21.3017751 C194.711792,21.3017751 192.94165,23.0679103 192.94165,25.2465483 C192.94165,27.4251864 194.711792,29.1913215 196.895372,29.1913215 Z M168.424288,47.3372781 C166.679789,47.3372781 165.265594,48.7537327 165.265594,50.4930966 C165.265594,52.2360071 166.675554,53.6489152 168.424288,53.6489152 L225.366456,53.6489152 C227.110955,53.6489152 228.525151,52.2324606 228.525151,50.4930966 C228.525151,48.7501862 227.115191,47.3372781 225.366456,47.3372781 L168.424288,47.3372781 Z" id="Apple-iPhone-6" fill="#F1F1F1" sketch:type="MSShapeGroup"></path>
    </g>
</svg>